<?xml version="1.0" encoding="UTF-8" standalone="no"?>
<!DOCTYPE svg PUBLIC "-//W3C//DTD SVG 1.1//EN"
 "http://www.w3.org/Graphics/SVG/1.1/DTD/svg11.dtd">
<!-- Generated by graphviz version 2.47.0 (20210316.0004)
 -->
<!-- Title: dependencies Pages: 1 -->
<svg width="643pt" height="211pt"
 viewBox="0.00 0.00 643.00 211.00" xmlns="http://www.w3.org/2000/svg" xmlns:xlink="http://www.w3.org/1999/xlink">
<g id="graph0" class="graph" transform="scale(1 1) rotate(0) translate(4 207)">
<title>dependencies</title>
<polygon fill="white" stroke="transparent" points="-4,4 -4,-207 639,-207 639,4 -4,4"/>
<text text-anchor="start" x="296.51" y="-42.4" font-family="Times-12" font-weight="bold" font-size="14.00">Legend</text>
<polygon fill="#ffffb3" stroke="transparent" points="83.5,-10 83.5,-30 103.5,-30 103.5,-10 83.5,-10"/>
<text text-anchor="start" x="107.13" y="-15.4" font-family="Times-12" font-size="14.00"> &#160;Declarations</text>
<polygon fill="#8dd3c7" stroke="transparent" points="196.5,-10 196.5,-30 216.5,-30 216.5,-10 196.5,-10"/>
<text text-anchor="start" x="220.23" y="-15.4" font-family="Times-12" font-size="14.00"> &#160;Module</text>
<polygon fill="#80b1d3" stroke="transparent" points="282.5,-10 282.5,-30 302.5,-30 302.5,-10 282.5,-10"/>
<text text-anchor="start" x="306.28" y="-15.4" font-family="Times-12" font-size="14.00"> &#160;Bootstrap</text>
<polygon fill="#fdb462" stroke="transparent" points="379.5,-10 379.5,-30 399.5,-30 399.5,-10 379.5,-10"/>
<text text-anchor="start" x="403.17" y="-15.4" font-family="Times-12" font-size="14.00"> &#160;Providers</text>
<polygon fill="#fb8072" stroke="transparent" points="475.5,-10 475.5,-30 495.5,-30 495.5,-10 475.5,-10"/>
<text text-anchor="start" x="499.23" y="-15.4" font-family="Times-12" font-size="14.00"> &#160;Exports</text>
<g id="clust1" class="cluster">
<title>cluster_UsersModule</title>
<polygon fill="none" stroke="black" stroke-dasharray="1,5" points="8,-70 8,-195 627,-195 627,-70 8,-70"/>
</g>
<g id="clust6" class="cluster">
<title>cluster_UsersModule_providers</title>
<polygon fill="none" stroke="black" points="16,-78 16,-130 619,-130 619,-78 16,-78"/>
</g>
<!-- AddressService -->
<g id="node1" class="node">
<title>AddressService</title>
<ellipse fill="#fdb462" stroke="black" cx="539" cy="-104" rx="71.77" ry="18"/>
<text text-anchor="middle" x="539" y="-99.8" font-family="Times,serif" font-size="14.00">AddressService</text>
</g>
<!-- UsersModule -->
<g id="node5" class="node">
<title>UsersModule</title>
<polygon fill="#8dd3c7" stroke="black" points="352.92,-187 349.92,-191 328.92,-191 325.92,-187 261.08,-187 261.08,-151 352.92,-151 352.92,-187"/>
<text text-anchor="middle" x="307" y="-164.8" font-family="Times,serif" font-size="14.00">UsersModule</text>
</g>
<!-- AddressService&#45;&gt;UsersModule -->
<g id="edge1" class="edge">
<title>AddressService&#45;&gt;UsersModule</title>
<path fill="none" stroke="black" d="M539,-122.11C539,-141.34 539,-169 539,-169 539,-169 362.84,-169 362.84,-169"/>
<polygon fill="black" stroke="black" points="362.84,-165.5 352.84,-169 362.84,-172.5 362.84,-165.5"/>
</g>
<!-- PrismaService -->
<g id="node2" class="node">
<title>PrismaService</title>
<ellipse fill="#fdb462" stroke="black" cx="383" cy="-104" rx="66.63" ry="18"/>
<text text-anchor="middle" x="383" y="-99.8" font-family="Times,serif" font-size="14.00">PrismaService</text>
</g>
<!-- PrismaService&#45;&gt;UsersModule -->
<g id="edge2" class="edge">
<title>PrismaService&#45;&gt;UsersModule</title>
<path fill="none" stroke="black" d="M334.45,-116.53C334.45,-116.53 334.45,-140.85 334.45,-140.85"/>
<polygon fill="black" stroke="black" points="330.95,-140.85 334.45,-150.85 337.95,-140.85 330.95,-140.85"/>
</g>
<!-- SellersService -->
<g id="node3" class="node">
<title>SellersService</title>
<ellipse fill="#fdb462" stroke="black" cx="232" cy="-104" rx="66.04" ry="18"/>
<text text-anchor="middle" x="232" y="-99.8" font-family="Times,serif" font-size="14.00">SellersService</text>
</g>
<!-- SellersService&#45;&gt;UsersModule -->
<g id="edge3" class="edge">
<title>SellersService&#45;&gt;UsersModule</title>
<path fill="none" stroke="black" d="M279.78,-116.53C279.78,-116.53 279.78,-140.85 279.78,-140.85"/>
<polygon fill="black" stroke="black" points="276.28,-140.85 279.78,-150.85 283.28,-140.85 276.28,-140.85"/>
</g>
<!-- UsersService -->
<g id="node4" class="node">
<title>UsersService</title>
<ellipse fill="#fdb462" stroke="black" cx="86" cy="-104" rx="61.95" ry="18"/>
<text text-anchor="middle" x="86" y="-99.8" font-family="Times,serif" font-size="14.00">UsersService</text>
</g>
<!-- UsersService&#45;&gt;UsersModule -->
<g id="edge4" class="edge">
<title>UsersService&#45;&gt;UsersModule</title>
<path fill="none" stroke="black" d="M86,-122.11C86,-141.34 86,-169 86,-169 86,-169 251.21,-169 251.21,-169"/>
<polygon fill="black" stroke="black" points="251.21,-172.5 261.21,-169 251.21,-165.5 251.21,-172.5"/>
</g>
</g>
</svg>
