<?xml version="1.0" encoding="UTF-8" standalone="no"?>
<!DOCTYPE svg PUBLIC "-//W3C//DTD SVG 1.1//EN"
 "http://www.w3.org/Graphics/SVG/1.1/DTD/svg11.dtd">
<!-- Generated by graphviz version 2.47.0 (20210316.0004)
 -->
<!-- Title: dependencies Pages: 1 -->
<svg width="1205pt" height="211pt"
 viewBox="0.00 0.00 1205.00 211.00" xmlns="http://www.w3.org/2000/svg" xmlns:xlink="http://www.w3.org/1999/xlink">
<g id="graph0" class="graph" transform="scale(1 1) rotate(0) translate(4 207)">
<title>dependencies</title>
<polygon fill="white" stroke="transparent" points="-4,4 -4,-207 1201,-207 1201,4 -4,4"/>
<text text-anchor="start" x="577.51" y="-42.4" font-family="Times-12" font-weight="bold" font-size="14.00">Legend</text>
<polygon fill="#ffffb3" stroke="transparent" points="364.5,-10 364.5,-30 384.5,-30 384.5,-10 364.5,-10"/>
<text text-anchor="start" x="388.13" y="-15.4" font-family="Times-12" font-size="14.00"> &#160;Declarations</text>
<polygon fill="#8dd3c7" stroke="transparent" points="477.5,-10 477.5,-30 497.5,-30 497.5,-10 477.5,-10"/>
<text text-anchor="start" x="501.23" y="-15.4" font-family="Times-12" font-size="14.00"> &#160;Module</text>
<polygon fill="#80b1d3" stroke="transparent" points="563.5,-10 563.5,-30 583.5,-30 583.5,-10 563.5,-10"/>
<text text-anchor="start" x="587.28" y="-15.4" font-family="Times-12" font-size="14.00"> &#160;Bootstrap</text>
<polygon fill="#fdb462" stroke="transparent" points="660.5,-10 660.5,-30 680.5,-30 680.5,-10 660.5,-10"/>
<text text-anchor="start" x="684.17" y="-15.4" font-family="Times-12" font-size="14.00"> &#160;Providers</text>
<polygon fill="#fb8072" stroke="transparent" points="756.5,-10 756.5,-30 776.5,-30 776.5,-10 756.5,-10"/>
<text text-anchor="start" x="780.23" y="-15.4" font-family="Times-12" font-size="14.00"> &#160;Exports</text>
<g id="clust1" class="cluster">
<title>cluster_AppModule</title>
<polygon fill="none" stroke="black" stroke-dasharray="1,5" points="8,-70 8,-195 1189,-195 1189,-70 8,-70"/>
</g>
<g id="clust3" class="cluster">
<title>cluster_AppModule_imports</title>
<polygon fill="none" stroke="black" points="584,-78 584,-130 1181,-130 1181,-78 584,-78"/>
</g>
<g id="clust6" class="cluster">
<title>cluster_AppModule_providers</title>
<polygon fill="none" stroke="black" points="16,-78 16,-130 576,-130 576,-78 16,-78"/>
</g>
<!-- AddressModule -->
<g id="node1" class="node">
<title>AddressModule</title>
<polygon fill="#8dd3c7" stroke="black" points="1172.92,-122 1169.92,-126 1148.92,-126 1145.92,-122 1067.08,-122 1067.08,-86 1172.92,-86 1172.92,-122"/>
<text text-anchor="middle" x="1120" y="-99.8" font-family="Times,serif" font-size="14.00">AddressModule</text>
</g>
<!-- AppModule -->
<g id="node6" class="node">
<title>AppModule</title>
<polygon fill="#8dd3c7" stroke="black" points="679.66,-187 676.66,-191 655.66,-191 652.66,-187 596.34,-187 596.34,-151 679.66,-151 679.66,-187"/>
<text text-anchor="middle" x="638" y="-164.8" font-family="Times,serif" font-size="14.00">AppModule</text>
</g>
<!-- AddressModule&#45;&gt;AppModule -->
<g id="edge1" class="edge">
<title>AddressModule&#45;&gt;AppModule</title>
<path fill="none" stroke="black" d="M1120,-122.01C1120,-144.49 1120,-180 1120,-180 1120,-180 689.93,-180 689.93,-180"/>
<polygon fill="black" stroke="black" points="689.93,-176.5 679.93,-180 689.93,-183.5 689.93,-176.5"/>
</g>
<!-- AuthModule -->
<g id="node2" class="node">
<title>AuthModule</title>
<polygon fill="#8dd3c7" stroke="black" points="1049.55,-122 1046.55,-126 1025.55,-126 1022.55,-122 962.45,-122 962.45,-86 1049.55,-86 1049.55,-122"/>
<text text-anchor="middle" x="1006" y="-99.8" font-family="Times,serif" font-size="14.00">AuthModule</text>
</g>
<!-- AuthModule&#45;&gt;AppModule -->
<g id="edge2" class="edge">
<title>AuthModule&#45;&gt;AppModule</title>
<path fill="none" stroke="black" d="M1006,-122.13C1006,-142.57 1006,-173 1006,-173 1006,-173 689.86,-173 689.86,-173"/>
<polygon fill="black" stroke="black" points="689.86,-169.5 679.86,-173 689.86,-176.5 689.86,-169.5"/>
</g>
<!-- PermissionsModule -->
<g id="node3" class="node">
<title>PermissionsModule</title>
<polygon fill="#8dd3c7" stroke="black" points="944.71,-122 941.71,-126 920.71,-126 917.71,-122 817.29,-122 817.29,-86 944.71,-86 944.71,-122"/>
<text text-anchor="middle" x="881" y="-99.8" font-family="Times,serif" font-size="14.00">PermissionsModule</text>
</g>
<!-- PermissionsModule&#45;&gt;AppModule -->
<g id="edge3" class="edge">
<title>PermissionsModule&#45;&gt;AppModule</title>
<path fill="none" stroke="black" d="M881,-122.27C881,-140.56 881,-166 881,-166 881,-166 689.77,-166 689.77,-166"/>
<polygon fill="black" stroke="black" points="689.77,-162.5 679.77,-166 689.77,-169.5 689.77,-162.5"/>
</g>
<!-- SellersModule -->
<g id="node4" class="node">
<title>SellersModule</title>
<polygon fill="#8dd3c7" stroke="black" points="799.65,-122 796.65,-126 775.65,-126 772.65,-122 702.35,-122 702.35,-86 799.65,-86 799.65,-122"/>
<text text-anchor="middle" x="751" y="-99.8" font-family="Times,serif" font-size="14.00">SellersModule</text>
</g>
<!-- SellersModule&#45;&gt;AppModule -->
<g id="edge4" class="edge">
<title>SellersModule&#45;&gt;AppModule</title>
<path fill="none" stroke="black" d="M751,-122.01C751,-138.05 751,-159 751,-159 751,-159 689.76,-159 689.76,-159"/>
<polygon fill="black" stroke="black" points="689.76,-155.5 679.76,-159 689.76,-162.5 689.76,-155.5"/>
</g>
<!-- UsersModule -->
<g id="node5" class="node">
<title>UsersModule</title>
<polygon fill="#8dd3c7" stroke="black" points="683.92,-122 680.92,-126 659.92,-126 656.92,-122 592.08,-122 592.08,-86 683.92,-86 683.92,-122"/>
<text text-anchor="middle" x="638" y="-99.8" font-family="Times,serif" font-size="14.00">UsersModule</text>
</g>
<!-- UsersModule&#45;&gt;AppModule -->
<g id="edge5" class="edge">
<title>UsersModule&#45;&gt;AppModule</title>
<path fill="none" stroke="black" d="M638,-122.11C638,-122.11 638,-140.99 638,-140.99"/>
<polygon fill="black" stroke="black" points="634.5,-140.99 638,-150.99 641.5,-140.99 634.5,-140.99"/>
</g>
<!-- AppService -->
<g id="node7" class="node">
<title>AppService</title>
<ellipse fill="#fdb462" stroke="black" cx="511" cy="-104" rx="56.74" ry="18"/>
<text text-anchor="middle" x="511" y="-99.8" font-family="Times,serif" font-size="14.00">AppService</text>
</g>
<!-- AppService&#45;&gt;AppModule -->
<g id="edge6" class="edge">
<title>AppService&#45;&gt;AppModule</title>
<path fill="none" stroke="black" d="M511,-122.01C511,-138.05 511,-159 511,-159 511,-159 586.06,-159 586.06,-159"/>
<polygon fill="black" stroke="black" points="586.06,-162.5 596.06,-159 586.06,-155.5 586.06,-162.5"/>
</g>
<!-- AuthService -->
<g id="node8" class="node">
<title>AuthService</title>
<ellipse fill="#fdb462" stroke="black" cx="377" cy="-104" rx="59.11" ry="18"/>
<text text-anchor="middle" x="377" y="-99.8" font-family="Times,serif" font-size="14.00">AuthService</text>
</g>
<!-- AuthService&#45;&gt;AppModule -->
<g id="edge7" class="edge">
<title>AuthService&#45;&gt;AppModule</title>
<path fill="none" stroke="black" d="M377,-122.27C377,-140.56 377,-166 377,-166 377,-166 586.07,-166 586.07,-166"/>
<polygon fill="black" stroke="black" points="586.07,-169.5 596.07,-166 586.07,-162.5 586.07,-169.5"/>
</g>
<!-- PrismaService -->
<g id="node9" class="node">
<title>PrismaService</title>
<ellipse fill="#fdb462" stroke="black" cx="233" cy="-104" rx="66.63" ry="18"/>
<text text-anchor="middle" x="233" y="-99.8" font-family="Times,serif" font-size="14.00">PrismaService</text>
</g>
<!-- PrismaService&#45;&gt;AppModule -->
<g id="edge8" class="edge">
<title>PrismaService&#45;&gt;AppModule</title>
<path fill="none" stroke="black" d="M233,-122.13C233,-142.57 233,-173 233,-173 233,-173 586.18,-173 586.18,-173"/>
<polygon fill="black" stroke="black" points="586.18,-176.5 596.18,-173 586.18,-169.5 586.18,-176.5"/>
</g>
<!-- UsersService -->
<g id="node10" class="node">
<title>UsersService</title>
<ellipse fill="#fdb462" stroke="black" cx="86" cy="-104" rx="61.95" ry="18"/>
<text text-anchor="middle" x="86" y="-99.8" font-family="Times,serif" font-size="14.00">UsersService</text>
</g>
<!-- UsersService&#45;&gt;AppModule -->
<g id="edge9" class="edge">
<title>UsersService&#45;&gt;AppModule</title>
<path fill="none" stroke="black" d="M86,-122.01C86,-144.49 86,-180 86,-180 86,-180 586.06,-180 586.06,-180"/>
<polygon fill="black" stroke="black" points="586.06,-183.5 596.06,-180 586.06,-176.5 586.06,-183.5"/>
</g>
</g>
</svg>
