<?xml version="1.0" encoding="UTF-8" standalone="no"?>
<!DOCTYPE svg PUBLIC "-//W3C//DTD SVG 1.1//EN"
 "http://www.w3.org/Graphics/SVG/1.1/DTD/svg11.dtd">
<!-- Generated by graphviz version 2.47.0 (20210316.0004)
 -->
<!-- Title: dependencies Pages: 1 -->
<svg width="1213pt" height="355pt"
 viewBox="0.00 0.00 1213.00 355.00" xmlns="http://www.w3.org/2000/svg" xmlns:xlink="http://www.w3.org/1999/xlink">
<g id="graph0" class="graph" transform="scale(1 1) rotate(0) translate(4 351)">
<title>dependencies</title>
<polygon fill="white" stroke="transparent" points="-4,4 -4,-351 1209,-351 1209,4 -4,4"/>
<text text-anchor="start" x="581.51" y="-42.4" font-family="Times-12" font-weight="bold" font-size="14.00">Legend</text>
<polygon fill="#ffffb3" stroke="transparent" points="368.5,-10 368.5,-30 388.5,-30 388.5,-10 368.5,-10"/>
<text text-anchor="start" x="392.13" y="-15.4" font-family="Times-12" font-size="14.00"> &#160;Declarations</text>
<polygon fill="#8dd3c7" stroke="transparent" points="481.5,-10 481.5,-30 501.5,-30 501.5,-10 481.5,-10"/>
<text text-anchor="start" x="505.23" y="-15.4" font-family="Times-12" font-size="14.00"> &#160;Module</text>
<polygon fill="#80b1d3" stroke="transparent" points="567.5,-10 567.5,-30 587.5,-30 587.5,-10 567.5,-10"/>
<text text-anchor="start" x="591.28" y="-15.4" font-family="Times-12" font-size="14.00"> &#160;Bootstrap</text>
<polygon fill="#fdb462" stroke="transparent" points="664.5,-10 664.5,-30 684.5,-30 684.5,-10 664.5,-10"/>
<text text-anchor="start" x="688.17" y="-15.4" font-family="Times-12" font-size="14.00"> &#160;Providers</text>
<polygon fill="#fb8072" stroke="transparent" points="760.5,-10 760.5,-30 780.5,-30 780.5,-10 760.5,-10"/>
<text text-anchor="start" x="784.23" y="-15.4" font-family="Times-12" font-size="14.00"> &#160;Exports</text>
<g id="clust1" class="cluster">
<title>cluster_AddressModule</title>
<polygon fill="none" stroke="black" stroke-dasharray="1,5" points="8,-70 8,-198 335,-198 335,-70 8,-70"/>
</g>
<g id="clust6" class="cluster">
<title>cluster_AddressModule_providers</title>
<polygon fill="none" stroke="black" points="16,-78 16,-130 327,-130 327,-78 16,-78"/>
</g>
<g id="clust7" class="cluster">
<title>cluster_AppModule</title>
<polygon fill="none" stroke="black" stroke-dasharray="1,5" points="343,-70 343,-331 811,-331 811,-70 343,-70"/>
</g>
<g id="clust9" class="cluster">
<title>cluster_AppModule_imports</title>
<polygon fill="none" stroke="black" points="403,-146 403,-263 771,-263 771,-146 403,-146"/>
</g>
<g id="clust12" class="cluster">
<title>cluster_AppModule_providers</title>
<polygon fill="none" stroke="black" points="351,-78 351,-130 759,-130 759,-78 351,-78"/>
</g>
<g id="clust13" class="cluster">
<title>cluster_AuthModule</title>
<polygon fill="none" stroke="black" stroke-dasharray="1,5" points="819,-271 819,-339 941,-339 941,-271 819,-271"/>
</g>
<g id="clust16" class="cluster">
<title>cluster_AuthModule_exports</title>
<polygon fill="none" stroke="black" points="827,-279 827,-331 933,-331 933,-279 827,-279"/>
</g>
<g id="clust19" class="cluster">
<title>cluster_PermissionsModule</title>
<polygon fill="none" stroke="black" stroke-dasharray="1,5" points="819,-70 819,-138 1025,-138 1025,-70 819,-70"/>
</g>
<g id="clust24" class="cluster">
<title>cluster_PermissionsModule_providers</title>
<polygon fill="none" stroke="black" points="827,-78 827,-130 1017,-130 1017,-78 827,-78"/>
</g>
<g id="clust25" class="cluster">
<title>cluster_SellersModule</title>
<polygon fill="none" stroke="black" stroke-dasharray="1,5" points="1033,-70 1033,-138 1197,-138 1197,-70 1033,-70"/>
</g>
<g id="clust30" class="cluster">
<title>cluster_SellersModule_providers</title>
<polygon fill="none" stroke="black" points="1041,-78 1041,-130 1189,-130 1189,-78 1041,-78"/>
</g>
<!-- AddressService -->
<g id="node1" class="node">
<title>AddressService</title>
<ellipse fill="#fdb462" stroke="black" cx="96" cy="-104" rx="71.77" ry="18"/>
<text text-anchor="middle" x="96" y="-99.8" font-family="Times,serif" font-size="14.00">AddressService</text>
</g>
<!-- AddressModule -->
<g id="node3" class="node">
<title>AddressModule</title>
<polygon fill="#8dd3c7" stroke="black" points="256.92,-190 253.92,-194 232.92,-194 229.92,-190 151.08,-190 151.08,-154 256.92,-154 256.92,-190"/>
<text text-anchor="middle" x="204" y="-167.8" font-family="Times,serif" font-size="14.00">AddressModule</text>
</g>
<!-- AddressService&#45;&gt;AddressModule -->
<g id="edge1" class="edge">
<title>AddressService&#45;&gt;AddressModule</title>
<path fill="none" stroke="black" d="M156.74,-113.74C156.74,-113.74 156.74,-143.84 156.74,-143.84"/>
<polygon fill="black" stroke="black" points="153.24,-143.84 156.74,-153.84 160.24,-143.84 153.24,-143.84"/>
</g>
<!-- UsersModule -->
<g id="node7" class="node">
<title>UsersModule</title>
<polygon fill="#8dd3c7" stroke="black" points="502.92,-190 499.92,-194 478.92,-194 475.92,-190 411.08,-190 411.08,-154 502.92,-154 502.92,-190"/>
<text text-anchor="middle" x="457" y="-167.8" font-family="Times,serif" font-size="14.00">UsersModule</text>
</g>
<!-- AddressService&#45;&gt;UsersModule -->
<g id="edge21" class="edge">
<title>AddressService&#45;&gt;UsersModule</title>
<path fill="none" stroke="black" d="M162.19,-111.1C162.19,-120.53 162.19,-136 162.19,-136 162.19,-136 441.95,-136 441.95,-136 441.95,-136 441.95,-143.58 441.95,-143.58"/>
<polygon fill="black" stroke="black" points="438.45,-143.58 441.95,-153.58 445.45,-143.58 438.45,-143.58"/>
</g>
<!-- PrismaService -->
<g id="node2" class="node">
<title>PrismaService</title>
<ellipse fill="#fdb462" stroke="black" cx="252" cy="-104" rx="66.63" ry="18"/>
<text text-anchor="middle" x="252" y="-99.8" font-family="Times,serif" font-size="14.00">PrismaService</text>
</g>
<!-- PrismaService&#45;&gt;AddressModule -->
<g id="edge2" class="edge">
<title>PrismaService&#45;&gt;AddressModule</title>
<path fill="none" stroke="black" d="M220.95,-120.12C220.95,-120.12 220.95,-143.6 220.95,-143.6"/>
<polygon fill="black" stroke="black" points="217.45,-143.6 220.95,-153.6 224.45,-143.6 217.45,-143.6"/>
</g>
<!-- AuthModule -->
<g id="node4" class="node">
<title>AuthModule</title>
<polygon fill="#8dd3c7" stroke="black" points="732.55,-255 729.55,-259 708.55,-259 705.55,-255 645.45,-255 645.45,-219 732.55,-219 732.55,-255"/>
<text text-anchor="middle" x="689" y="-232.8" font-family="Times,serif" font-size="14.00">AuthModule</text>
</g>
<!-- PrismaService&#45;&gt;AuthModule -->
<g id="edge15" class="edge">
<title>PrismaService&#45;&gt;AuthModule</title>
<path fill="none" stroke="black" d="M293.97,-118.15C293.97,-153.15 293.97,-241 293.97,-241 293.97,-241 635.22,-241 635.22,-241"/>
<polygon fill="black" stroke="black" points="635.22,-244.5 645.22,-241 635.22,-237.5 635.22,-244.5"/>
</g>
<!-- PermissionsModule -->
<g id="node5" class="node">
<title>PermissionsModule</title>
<polygon fill="#8dd3c7" stroke="black" points="647.71,-190 644.71,-194 623.71,-194 620.71,-190 520.29,-190 520.29,-154 647.71,-154 647.71,-190"/>
<text text-anchor="middle" x="584" y="-167.8" font-family="Times,serif" font-size="14.00">PermissionsModule</text>
</g>
<!-- PrismaService&#45;&gt;PermissionsModule -->
<g id="edge18" class="edge">
<title>PrismaService&#45;&gt;PermissionsModule</title>
<path fill="none" stroke="black" d="M269.13,-121.57C269.13,-127.2 269.13,-132 269.13,-132 269.13,-132 564.85,-132 564.85,-132 564.85,-132 564.85,-143.87 564.85,-143.87"/>
<polygon fill="black" stroke="black" points="561.35,-143.87 564.85,-153.87 568.35,-143.87 561.35,-143.87"/>
</g>
<!-- SellersModule -->
<g id="node6" class="node">
<title>SellersModule</title>
<polygon fill="#8dd3c7" stroke="black" points="762.65,-190 759.65,-194 738.65,-194 735.65,-190 665.35,-190 665.35,-154 762.65,-154 762.65,-190"/>
<text text-anchor="middle" x="714" y="-167.8" font-family="Times,serif" font-size="14.00">SellersModule</text>
</g>
<!-- PrismaService&#45;&gt;SellersModule -->
<g id="edge19" class="edge">
<title>PrismaService&#45;&gt;SellersModule</title>
<path fill="none" stroke="black" d="M281.55,-120.22C281.55,-124.03 281.55,-127 281.55,-127 281.55,-127 708.08,-127 708.08,-127 708.08,-127 708.08,-143.96 708.08,-143.96"/>
<polygon fill="black" stroke="black" points="704.58,-143.96 708.08,-153.96 711.58,-143.96 704.58,-143.96"/>
</g>
<!-- PrismaService&#45;&gt;UsersModule -->
<g id="edge22" class="edge">
<title>PrismaService&#45;&gt;UsersModule</title>
<path fill="none" stroke="black" d="M306.39,-114.52C306.39,-132.21 306.39,-166 306.39,-166 306.39,-166 400.99,-166 400.99,-166"/>
<polygon fill="black" stroke="black" points="400.99,-169.5 410.99,-166 400.99,-162.5 400.99,-169.5"/>
</g>
<!-- AppModule -->
<g id="node8" class="node">
<title>AppModule</title>
<polygon fill="#8dd3c7" stroke="black" points="434.66,-323 431.66,-327 410.66,-327 407.66,-323 351.34,-323 351.34,-287 434.66,-287 434.66,-323"/>
<text text-anchor="middle" x="393" y="-300.8" font-family="Times,serif" font-size="14.00">AppModule</text>
</g>
<!-- PrismaService&#45;&gt;AppModule -->
<g id="edge10" class="edge">
<title>PrismaService&#45;&gt;AppModule</title>
<path fill="none" stroke="black" d="M318.86,-104C339.37,-104 356.64,-104 356.64,-104 356.64,-104 356.64,-276.81 356.64,-276.81"/>
<polygon fill="black" stroke="black" points="353.14,-276.81 356.64,-286.81 360.14,-276.81 353.14,-276.81"/>
</g>
<!-- AddressModule&#45;&gt;AppModule -->
<g id="edge3" class="edge">
<title>AddressModule&#45;&gt;AppModule</title>
<path fill="none" stroke="black" d="M256.85,-178C300.01,-178 353.91,-178 353.91,-178 353.91,-178 353.91,-276.8 353.91,-276.8"/>
<polygon fill="black" stroke="black" points="350.41,-276.8 353.91,-286.8 357.41,-276.8 350.41,-276.8"/>
</g>
<!-- AuthModule&#45;&gt;AppModule -->
<g id="edge4" class="edge">
<title>AuthModule&#45;&gt;AppModule</title>
<path fill="none" stroke="black" d="M645.18,-248C571.06,-248 428.94,-248 428.94,-248 428.94,-248 428.94,-276.96 428.94,-276.96"/>
<polygon fill="black" stroke="black" points="425.44,-276.96 428.94,-286.96 432.44,-276.96 425.44,-276.96"/>
</g>
<!-- AuthService  -->
<g id="node12" class="node">
<title>AuthService </title>
<polygon fill="#fb8072" stroke="black" points="924.98,-323 835.02,-323 835.02,-287 924.98,-287 924.98,-323"/>
<text text-anchor="middle" x="880" y="-300.8" font-family="Times,serif" font-size="14.00">AuthService </text>
</g>
<!-- AuthModule&#45;&gt;AuthService  -->
<g id="edge13" class="edge">
<title>AuthModule&#45;&gt;AuthService </title>
<path fill="none" stroke="black" stroke-dasharray="5,2" d="M689,-255.32C689,-278.66 689,-316 689,-316 689,-316 825.22,-316 825.22,-316"/>
<polygon fill="black" stroke="black" points="825.22,-319.5 835.22,-316 825.22,-312.5 825.22,-319.5"/>
</g>
<!-- PermissionsModule&#45;&gt;AppModule -->
<g id="edge5" class="edge">
<title>PermissionsModule&#45;&gt;AppModule</title>
<path fill="none" stroke="black" d="M582.81,-190.08C582.81,-225.8 582.81,-302 582.81,-302 582.81,-302 445.12,-302 445.12,-302"/>
<polygon fill="black" stroke="black" points="445.13,-298.5 435.12,-302 445.12,-305.5 445.13,-298.5"/>
</g>
<!-- SellersModule&#45;&gt;AppModule -->
<g id="edge6" class="edge">
<title>SellersModule&#45;&gt;AppModule</title>
<path fill="none" stroke="black" d="M747.8,-190.19C747.8,-227.46 747.8,-309 747.8,-309 747.8,-309 444.74,-309 444.74,-309"/>
<polygon fill="black" stroke="black" points="444.74,-305.5 434.74,-309 444.74,-312.5 444.74,-305.5"/>
</g>
<!-- UsersModule&#45;&gt;AuthModule -->
<g id="edge12" class="edge">
<title>UsersModule&#45;&gt;AuthModule</title>
<path fill="none" stroke="black" d="M468.77,-190.27C468.77,-208.56 468.77,-234 468.77,-234 468.77,-234 635.23,-234 635.23,-234"/>
<polygon fill="black" stroke="black" points="635.23,-237.5 645.23,-234 635.23,-230.5 635.23,-237.5"/>
</g>
<!-- UsersModule&#45;&gt;AppModule -->
<g id="edge7" class="edge">
<title>UsersModule&#45;&gt;AppModule</title>
<path fill="none" stroke="black" d="M417.17,-190.21C417.17,-190.21 417.17,-276.58 417.17,-276.58"/>
<polygon fill="black" stroke="black" points="413.67,-276.58 417.17,-286.58 420.67,-276.58 413.67,-276.58"/>
</g>
<!-- AppService -->
<g id="node9" class="node">
<title>AppService</title>
<ellipse fill="#fdb462" stroke="black" cx="416" cy="-104" rx="56.74" ry="18"/>
<text text-anchor="middle" x="416" y="-99.8" font-family="Times,serif" font-size="14.00">AppService</text>
</g>
<!-- AppService&#45;&gt;AppModule -->
<g id="edge8" class="edge">
<title>AppService&#45;&gt;AppModule</title>
<path fill="none" stroke="black" d="M385.33,-119.44C385.33,-119.44 385.33,-276.94 385.33,-276.94"/>
<polygon fill="black" stroke="black" points="381.83,-276.94 385.33,-286.94 388.83,-276.94 381.83,-276.94"/>
</g>
<!-- AuthService -->
<g id="node10" class="node">
<title>AuthService</title>
<ellipse fill="#fdb462" stroke="black" cx="550" cy="-104" rx="59.11" ry="18"/>
<text text-anchor="middle" x="550" y="-99.8" font-family="Times,serif" font-size="14.00">AuthService</text>
</g>
<!-- AuthService&#45;&gt;AuthModule -->
<g id="edge14" class="edge">
<title>AuthService&#45;&gt;AuthModule</title>
<path fill="none" stroke="black" d="M514.5,-118.59C514.5,-151.17 514.5,-227 514.5,-227 514.5,-227 635.42,-227 635.42,-227"/>
<polygon fill="black" stroke="black" points="635.42,-230.5 645.42,-227 635.42,-223.5 635.42,-230.5"/>
</g>
<!-- AuthService&#45;&gt;AppModule -->
<g id="edge9" class="edge">
<title>AuthService&#45;&gt;AppModule</title>
<path fill="none" stroke="black" d="M508.6,-117.13C508.6,-160.28 508.6,-295 508.6,-295 508.6,-295 444.74,-295 444.74,-295"/>
<polygon fill="black" stroke="black" points="444.74,-291.5 434.74,-295 444.74,-298.5 444.74,-291.5"/>
</g>
<!-- UsersService -->
<g id="node11" class="node">
<title>UsersService</title>
<ellipse fill="#fdb462" stroke="black" cx="689" cy="-104" rx="61.95" ry="18"/>
<text text-anchor="middle" x="689" y="-99.8" font-family="Times,serif" font-size="14.00">UsersService</text>
</g>
<!-- UsersService&#45;&gt;AuthModule -->
<g id="edge16" class="edge">
<title>UsersService&#45;&gt;AuthModule</title>
<path fill="none" stroke="black" d="M659.32,-120.04C659.32,-120.04 659.32,-208.77 659.32,-208.77"/>
<polygon fill="black" stroke="black" points="655.82,-208.77 659.32,-218.77 662.82,-208.77 655.82,-208.77"/>
</g>
<!-- UsersService&#45;&gt;UsersModule -->
<g id="edge24" class="edge">
<title>UsersService&#45;&gt;UsersModule</title>
<path fill="none" stroke="black" d="M633.88,-112.58C633.88,-123.51 633.88,-141 633.88,-141 633.88,-141 494.7,-141 494.7,-141 494.7,-141 494.7,-143.97 494.7,-143.97"/>
<polygon fill="black" stroke="black" points="491.2,-143.97 494.7,-153.97 498.2,-143.97 491.2,-143.97"/>
</g>
<!-- UsersService&#45;&gt;AppModule -->
<g id="edge11" class="edge">
<title>UsersService&#45;&gt;AppModule</title>
<path fill="none" stroke="black" d="M653.46,-118.9C653.46,-147 653.46,-205 653.46,-205 653.46,-205 423.06,-205 423.06,-205 423.06,-205 423.06,-276.66 423.06,-276.66"/>
<polygon fill="black" stroke="black" points="419.56,-276.66 423.06,-286.66 426.56,-276.66 419.56,-276.66"/>
</g>
<!-- PermissionsService -->
<g id="node13" class="node">
<title>PermissionsService</title>
<ellipse fill="#fdb462" stroke="black" cx="922" cy="-104" rx="86.83" ry="18"/>
<text text-anchor="middle" x="922" y="-99.8" font-family="Times,serif" font-size="14.00">PermissionsService</text>
</g>
<!-- PermissionsService&#45;&gt;PermissionsModule -->
<g id="edge17" class="edge">
<title>PermissionsService&#45;&gt;PermissionsModule</title>
<path fill="none" stroke="black" d="M880.04,-119.83C880.04,-133.14 880.04,-150 880.04,-150 880.04,-150 640.75,-150 640.75,-150 640.75,-150 640.75,-150.38 640.75,-150.38"/>
<polygon fill="black" stroke="black" points="637.25,-143.83 640.75,-153.83 644.25,-143.83 637.25,-143.83"/>
</g>
<!-- SellersService -->
<g id="node14" class="node">
<title>SellersService</title>
<ellipse fill="#fdb462" stroke="black" cx="1115" cy="-104" rx="66.04" ry="18"/>
<text text-anchor="middle" x="1115" y="-99.8" font-family="Times,serif" font-size="14.00">SellersService</text>
</g>
<!-- SellersService&#45;&gt;SellersModule -->
<g id="edge20" class="edge">
<title>SellersService&#45;&gt;SellersModule</title>
<path fill="none" stroke="black" d="M1137.09,-121.16C1137.09,-141.3 1137.09,-172 1137.09,-172 1137.09,-172 772.95,-172 772.95,-172"/>
<polygon fill="black" stroke="black" points="772.95,-168.5 762.95,-172 772.95,-175.5 772.95,-168.5"/>
</g>
<!-- SellersService&#45;&gt;UsersModule -->
<g id="edge23" class="edge">
<title>SellersService&#45;&gt;UsersModule</title>
<path fill="none" stroke="black" d="M1092.91,-121.15C1092.91,-132.39 1092.91,-145 1092.91,-145 1092.91,-145 498.71,-145 498.71,-145 498.71,-145 498.71,-145.88 498.71,-145.88"/>
<polygon fill="black" stroke="black" points="495.21,-143.84 498.71,-153.84 502.21,-143.84 495.21,-143.84"/>
</g>
</g>
</svg>
